%TF.GenerationSoftware,KiCad,Pcbnew,(5.1.6-0-10_14)*%
%TF.CreationDate,2021-12-29T22:17:22-06:00*%
%TF.ProjectId,attiny10_adapter,61747469-6e79-4313-905f-616461707465,1.0*%
%TF.SameCoordinates,Original*%
%TF.FileFunction,Legend,Bot*%
%TF.FilePolarity,Positive*%
%FSLAX46Y46*%
G04 Gerber Fmt 4.6, Leading zero omitted, Abs format (unit mm)*
G04 Created by KiCad (PCBNEW (5.1.6-0-10_14)) date 2021-12-29 22:17:22*
%MOMM*%
%LPD*%
G01*
G04 APERTURE LIST*
%ADD10C,0.125000*%
%ADD11C,0.120000*%
G04 APERTURE END LIST*
D10*
X140382642Y-104239190D02*
X140668357Y-104239190D01*
X140525500Y-104239190D02*
X140525500Y-103739190D01*
X140573119Y-103810619D01*
X140620738Y-103858238D01*
X140668357Y-103882047D01*
X141541452Y-101223000D02*
X141589071Y-101199190D01*
X141660500Y-101199190D01*
X141731928Y-101223000D01*
X141779547Y-101270619D01*
X141803357Y-101318238D01*
X141827166Y-101413476D01*
X141827166Y-101484904D01*
X141803357Y-101580142D01*
X141779547Y-101627761D01*
X141731928Y-101675380D01*
X141660500Y-101699190D01*
X141612880Y-101699190D01*
X141541452Y-101675380D01*
X141517642Y-101651571D01*
X141517642Y-101484904D01*
X141612880Y-101484904D01*
X141303357Y-101699190D02*
X141303357Y-101199190D01*
X141017642Y-101699190D01*
X141017642Y-101199190D01*
X140779547Y-101699190D02*
X140779547Y-101199190D01*
X140660500Y-101199190D01*
X140589071Y-101223000D01*
X140541452Y-101270619D01*
X140517642Y-101318238D01*
X140493833Y-101413476D01*
X140493833Y-101484904D01*
X140517642Y-101580142D01*
X140541452Y-101627761D01*
X140589071Y-101675380D01*
X140660500Y-101699190D01*
X140779547Y-101699190D01*
X141184309Y-98595690D02*
X141136690Y-98595690D01*
X141089071Y-98619500D01*
X141065261Y-98643309D01*
X141041452Y-98690928D01*
X141017642Y-98786166D01*
X141017642Y-98905214D01*
X141041452Y-99000452D01*
X141065261Y-99048071D01*
X141089071Y-99071880D01*
X141136690Y-99095690D01*
X141184309Y-99095690D01*
X141231928Y-99071880D01*
X141255738Y-99048071D01*
X141279547Y-99000452D01*
X141303357Y-98905214D01*
X141303357Y-98786166D01*
X141279547Y-98690928D01*
X141255738Y-98643309D01*
X141231928Y-98619500D01*
X141184309Y-98595690D01*
X144287857Y-103786809D02*
X144264047Y-103763000D01*
X144216428Y-103739190D01*
X144097380Y-103739190D01*
X144049761Y-103763000D01*
X144025952Y-103786809D01*
X144002142Y-103834428D01*
X144002142Y-103882047D01*
X144025952Y-103953476D01*
X144311666Y-104239190D01*
X144002142Y-104239190D01*
X144176666Y-101199190D02*
X144010000Y-101699190D01*
X143843333Y-101199190D01*
X143390952Y-101651571D02*
X143414761Y-101675380D01*
X143486190Y-101699190D01*
X143533809Y-101699190D01*
X143605238Y-101675380D01*
X143652857Y-101627761D01*
X143676666Y-101580142D01*
X143700476Y-101484904D01*
X143700476Y-101413476D01*
X143676666Y-101318238D01*
X143652857Y-101270619D01*
X143605238Y-101223000D01*
X143533809Y-101199190D01*
X143486190Y-101199190D01*
X143414761Y-101223000D01*
X143390952Y-101246809D01*
X142890952Y-101651571D02*
X142914761Y-101675380D01*
X142986190Y-101699190D01*
X143033809Y-101699190D01*
X143105238Y-101675380D01*
X143152857Y-101627761D01*
X143176666Y-101580142D01*
X143200476Y-101484904D01*
X143200476Y-101413476D01*
X143176666Y-101318238D01*
X143152857Y-101270619D01*
X143105238Y-101223000D01*
X143033809Y-101199190D01*
X142986190Y-101199190D01*
X142914761Y-101223000D01*
X142890952Y-101246809D01*
X143740166Y-98158190D02*
X143430642Y-98158190D01*
X143597309Y-98348666D01*
X143525880Y-98348666D01*
X143478261Y-98372476D01*
X143454452Y-98396285D01*
X143430642Y-98443904D01*
X143430642Y-98562952D01*
X143454452Y-98610571D01*
X143478261Y-98634380D01*
X143525880Y-98658190D01*
X143668738Y-98658190D01*
X143716357Y-98634380D01*
X143740166Y-98610571D01*
X143847309Y-99533190D02*
X144013976Y-99295095D01*
X144133023Y-99533190D02*
X144133023Y-99033190D01*
X143942547Y-99033190D01*
X143894928Y-99057000D01*
X143871119Y-99080809D01*
X143847309Y-99128428D01*
X143847309Y-99199857D01*
X143871119Y-99247476D01*
X143894928Y-99271285D01*
X143942547Y-99295095D01*
X144133023Y-99295095D01*
X143656833Y-99509380D02*
X143585404Y-99533190D01*
X143466357Y-99533190D01*
X143418738Y-99509380D01*
X143394928Y-99485571D01*
X143371119Y-99437952D01*
X143371119Y-99390333D01*
X143394928Y-99342714D01*
X143418738Y-99318904D01*
X143466357Y-99295095D01*
X143561595Y-99271285D01*
X143609214Y-99247476D01*
X143633023Y-99223666D01*
X143656833Y-99176047D01*
X143656833Y-99128428D01*
X143633023Y-99080809D01*
X143609214Y-99057000D01*
X143561595Y-99033190D01*
X143442547Y-99033190D01*
X143371119Y-99057000D01*
X143228261Y-99033190D02*
X142942547Y-99033190D01*
X143085404Y-99533190D02*
X143085404Y-99033190D01*
D11*
%TO.C,JP1*%
X143767000Y-105394000D02*
X143767000Y-103394000D01*
X140967000Y-105394000D02*
X143767000Y-105394000D01*
X140967000Y-103394000D02*
X140967000Y-105394000D01*
X143767000Y-103394000D02*
X140967000Y-103394000D01*
%TO.C,J2*%
X147520000Y-105270000D02*
X144860000Y-105270000D01*
X147520000Y-100130000D02*
X147520000Y-105270000D01*
X144860000Y-100130000D02*
X144860000Y-105270000D01*
X147520000Y-100130000D02*
X144860000Y-100130000D01*
X147520000Y-98860000D02*
X147520000Y-97530000D01*
X147520000Y-97530000D02*
X146190000Y-97530000D01*
%TO.C,J1*%
X139900000Y-105270000D02*
X137240000Y-105270000D01*
X139900000Y-100130000D02*
X139900000Y-105270000D01*
X137240000Y-100130000D02*
X137240000Y-105270000D01*
X139900000Y-100130000D02*
X137240000Y-100130000D01*
X139900000Y-98860000D02*
X139900000Y-97530000D01*
X139900000Y-97530000D02*
X138570000Y-97530000D01*
%TO.C,JP1*%
D10*
X142783666Y-102469190D02*
X142783666Y-102826333D01*
X142807476Y-102897761D01*
X142855095Y-102945380D01*
X142926523Y-102969190D01*
X142974142Y-102969190D01*
X142545571Y-102969190D02*
X142545571Y-102469190D01*
X142355095Y-102469190D01*
X142307476Y-102493000D01*
X142283666Y-102516809D01*
X142259857Y-102564428D01*
X142259857Y-102635857D01*
X142283666Y-102683476D01*
X142307476Y-102707285D01*
X142355095Y-102731095D01*
X142545571Y-102731095D01*
X141783666Y-102969190D02*
X142069380Y-102969190D01*
X141926523Y-102969190D02*
X141926523Y-102469190D01*
X141974142Y-102540619D01*
X142021761Y-102588238D01*
X142069380Y-102612047D01*
%TO.C,J2*%
X145734666Y-97008190D02*
X145734666Y-97365333D01*
X145758476Y-97436761D01*
X145806095Y-97484380D01*
X145877523Y-97508190D01*
X145925142Y-97508190D01*
X145520380Y-97055809D02*
X145496571Y-97032000D01*
X145448952Y-97008190D01*
X145329904Y-97008190D01*
X145282285Y-97032000D01*
X145258476Y-97055809D01*
X145234666Y-97103428D01*
X145234666Y-97151047D01*
X145258476Y-97222476D01*
X145544190Y-97508190D01*
X145234666Y-97508190D01*
%TO.C,J1*%
X138114666Y-97008190D02*
X138114666Y-97365333D01*
X138138476Y-97436761D01*
X138186095Y-97484380D01*
X138257523Y-97508190D01*
X138305142Y-97508190D01*
X137614666Y-97508190D02*
X137900380Y-97508190D01*
X137757523Y-97508190D02*
X137757523Y-97008190D01*
X137805142Y-97079619D01*
X137852761Y-97127238D01*
X137900380Y-97151047D01*
%TD*%
M02*
