%TF.GenerationSoftware,KiCad,Pcbnew,(5.1.6-0-10_14)*%
%TF.CreationDate,2021-12-29T22:17:22-06:00*%
%TF.ProjectId,attiny10_adapter,61747469-6e79-4313-905f-616461707465,1.0*%
%TF.SameCoordinates,Original*%
%TF.FileFunction,Soldermask,Top*%
%TF.FilePolarity,Negative*%
%FSLAX46Y46*%
G04 Gerber Fmt 4.6, Leading zero omitted, Abs format (unit mm)*
G04 Created by KiCad (PCBNEW (5.1.6-0-10_14)) date 2021-12-29 22:17:22*
%MOMM*%
%LPD*%
G01*
G04 APERTURE LIST*
%ADD10R,1.160000X0.750000*%
%ADD11O,1.800000X1.800000*%
%ADD12R,1.800000X1.800000*%
G04 APERTURE END LIST*
%TO.C,D1*%
G36*
G01*
X142687000Y-104802250D02*
X142687000Y-104239750D01*
G75*
G02*
X142930750Y-103996000I243750J0D01*
G01*
X143418250Y-103996000D01*
G75*
G02*
X143662000Y-104239750I0J-243750D01*
G01*
X143662000Y-104802250D01*
G75*
G02*
X143418250Y-105046000I-243750J0D01*
G01*
X142930750Y-105046000D01*
G75*
G02*
X142687000Y-104802250I0J243750D01*
G01*
G37*
G36*
G01*
X141112000Y-104802250D02*
X141112000Y-104239750D01*
G75*
G02*
X141355750Y-103996000I243750J0D01*
G01*
X141843250Y-103996000D01*
G75*
G02*
X142087000Y-104239750I0J-243750D01*
G01*
X142087000Y-104802250D01*
G75*
G02*
X141843250Y-105046000I-243750J0D01*
G01*
X141355750Y-105046000D01*
G75*
G02*
X141112000Y-104802250I0J243750D01*
G01*
G37*
%TD*%
%TO.C,R1*%
G36*
G01*
X142507000Y-103194500D02*
X142507000Y-102799500D01*
G75*
G02*
X142679500Y-102627000I172500J0D01*
G01*
X143024500Y-102627000D01*
G75*
G02*
X143197000Y-102799500I0J-172500D01*
G01*
X143197000Y-103194500D01*
G75*
G02*
X143024500Y-103367000I-172500J0D01*
G01*
X142679500Y-103367000D01*
G75*
G02*
X142507000Y-103194500I0J172500D01*
G01*
G37*
G36*
G01*
X141537000Y-103194500D02*
X141537000Y-102799500D01*
G75*
G02*
X141709500Y-102627000I172500J0D01*
G01*
X142054500Y-102627000D01*
G75*
G02*
X142227000Y-102799500I0J-172500D01*
G01*
X142227000Y-103194500D01*
G75*
G02*
X142054500Y-103367000I-172500J0D01*
G01*
X141709500Y-103367000D01*
G75*
G02*
X141537000Y-103194500I0J172500D01*
G01*
G37*
%TD*%
D10*
%TO.C,U1*%
X143467000Y-100393500D03*
X143467000Y-99443500D03*
X143467000Y-101343500D03*
X141267000Y-101343500D03*
X141267000Y-100393500D03*
X141267000Y-99443500D03*
%TD*%
D11*
%TO.C,J2*%
X146190000Y-103940000D03*
X146190000Y-101400000D03*
D12*
X146190000Y-98860000D03*
%TD*%
D11*
%TO.C,J1*%
X138570000Y-103940000D03*
X138570000Y-101400000D03*
D12*
X138570000Y-98860000D03*
%TD*%
%TO.C,C1*%
G36*
G01*
X142067000Y-97508750D02*
X142067000Y-98071250D01*
G75*
G02*
X141823250Y-98315000I-243750J0D01*
G01*
X141335750Y-98315000D01*
G75*
G02*
X141092000Y-98071250I0J243750D01*
G01*
X141092000Y-97508750D01*
G75*
G02*
X141335750Y-97265000I243750J0D01*
G01*
X141823250Y-97265000D01*
G75*
G02*
X142067000Y-97508750I0J-243750D01*
G01*
G37*
G36*
G01*
X143642000Y-97508750D02*
X143642000Y-98071250D01*
G75*
G02*
X143398250Y-98315000I-243750J0D01*
G01*
X142910750Y-98315000D01*
G75*
G02*
X142667000Y-98071250I0J243750D01*
G01*
X142667000Y-97508750D01*
G75*
G02*
X142910750Y-97265000I243750J0D01*
G01*
X143398250Y-97265000D01*
G75*
G02*
X143642000Y-97508750I0J-243750D01*
G01*
G37*
%TD*%
M02*
