%TF.GenerationSoftware,KiCad,Pcbnew,(5.1.6-0-10_14)*%
%TF.CreationDate,2021-12-29T22:17:22-06:00*%
%TF.ProjectId,attiny10_adapter,61747469-6e79-4313-905f-616461707465,1.0*%
%TF.SameCoordinates,Original*%
%TF.FileFunction,Legend,Top*%
%TF.FilePolarity,Positive*%
%FSLAX46Y46*%
G04 Gerber Fmt 4.6, Leading zero omitted, Abs format (unit mm)*
G04 Created by KiCad (PCBNEW (5.1.6-0-10_14)) date 2021-12-29 22:17:22*
%MOMM*%
%LPD*%
G01*
G04 APERTURE LIST*
%ADD10C,0.120000*%
%ADD11C,0.125000*%
G04 APERTURE END LIST*
D10*
%TO.C,D1*%
X143187000Y-103786000D02*
X140902000Y-103786000D01*
X140902000Y-103786000D02*
X140902000Y-105256000D01*
X140902000Y-105256000D02*
X143187000Y-105256000D01*
%TO.C,U1*%
X141467000Y-102003500D02*
X143267000Y-102003500D01*
X143267000Y-98783500D02*
X140817000Y-98783500D01*
%TO.C,C1*%
X142529779Y-98300000D02*
X142204221Y-98300000D01*
X142529779Y-97280000D02*
X142204221Y-97280000D01*
%TO.C,D1*%
D11*
X144220452Y-104747190D02*
X144220452Y-104247190D01*
X144339500Y-104247190D01*
X144410928Y-104271000D01*
X144458547Y-104318619D01*
X144482357Y-104366238D01*
X144506166Y-104461476D01*
X144506166Y-104532904D01*
X144482357Y-104628142D01*
X144458547Y-104675761D01*
X144410928Y-104723380D01*
X144339500Y-104747190D01*
X144220452Y-104747190D01*
X144982357Y-104747190D02*
X144696642Y-104747190D01*
X144839500Y-104747190D02*
X144839500Y-104247190D01*
X144791880Y-104318619D01*
X144744261Y-104366238D01*
X144696642Y-104390047D01*
%TO.C,R1*%
X143998166Y-103263690D02*
X143831500Y-103025595D01*
X143712452Y-103263690D02*
X143712452Y-102763690D01*
X143902928Y-102763690D01*
X143950547Y-102787500D01*
X143974357Y-102811309D01*
X143998166Y-102858928D01*
X143998166Y-102930357D01*
X143974357Y-102977976D01*
X143950547Y-103001785D01*
X143902928Y-103025595D01*
X143712452Y-103025595D01*
X144474357Y-103263690D02*
X144188642Y-103263690D01*
X144331500Y-103263690D02*
X144331500Y-102763690D01*
X144283880Y-102835119D01*
X144236261Y-102882738D01*
X144188642Y-102906547D01*
%TO.C,U1*%
X144399047Y-100056190D02*
X144399047Y-100460952D01*
X144422857Y-100508571D01*
X144446666Y-100532380D01*
X144494285Y-100556190D01*
X144589523Y-100556190D01*
X144637142Y-100532380D01*
X144660952Y-100508571D01*
X144684761Y-100460952D01*
X144684761Y-100056190D01*
X145184761Y-100556190D02*
X144899047Y-100556190D01*
X145041904Y-100556190D02*
X145041904Y-100056190D01*
X144994285Y-100127619D01*
X144946666Y-100175238D01*
X144899047Y-100199047D01*
%TO.C,C1*%
X144379166Y-97968571D02*
X144355357Y-97992380D01*
X144283928Y-98016190D01*
X144236309Y-98016190D01*
X144164880Y-97992380D01*
X144117261Y-97944761D01*
X144093452Y-97897142D01*
X144069642Y-97801904D01*
X144069642Y-97730476D01*
X144093452Y-97635238D01*
X144117261Y-97587619D01*
X144164880Y-97540000D01*
X144236309Y-97516190D01*
X144283928Y-97516190D01*
X144355357Y-97540000D01*
X144379166Y-97563809D01*
X144855357Y-98016190D02*
X144569642Y-98016190D01*
X144712500Y-98016190D02*
X144712500Y-97516190D01*
X144664880Y-97587619D01*
X144617261Y-97635238D01*
X144569642Y-97659047D01*
%TD*%
M02*
