%TF.GenerationSoftware,KiCad,Pcbnew,(5.1.6-0-10_14)*%
%TF.CreationDate,2021-12-29T22:17:22-06:00*%
%TF.ProjectId,attiny10_adapter,61747469-6e79-4313-905f-616461707465,1.0*%
%TF.SameCoordinates,Original*%
%TF.FileFunction,Paste,Top*%
%TF.FilePolarity,Positive*%
%FSLAX46Y46*%
G04 Gerber Fmt 4.6, Leading zero omitted, Abs format (unit mm)*
G04 Created by KiCad (PCBNEW (5.1.6-0-10_14)) date 2021-12-29 22:17:22*
%MOMM*%
%LPD*%
G01*
G04 APERTURE LIST*
%ADD10R,1.060000X0.650000*%
G04 APERTURE END LIST*
%TO.C,D1*%
G36*
G01*
X142737000Y-104777250D02*
X142737000Y-104264750D01*
G75*
G02*
X142955750Y-104046000I218750J0D01*
G01*
X143393250Y-104046000D01*
G75*
G02*
X143612000Y-104264750I0J-218750D01*
G01*
X143612000Y-104777250D01*
G75*
G02*
X143393250Y-104996000I-218750J0D01*
G01*
X142955750Y-104996000D01*
G75*
G02*
X142737000Y-104777250I0J218750D01*
G01*
G37*
G36*
G01*
X141162000Y-104777250D02*
X141162000Y-104264750D01*
G75*
G02*
X141380750Y-104046000I218750J0D01*
G01*
X141818250Y-104046000D01*
G75*
G02*
X142037000Y-104264750I0J-218750D01*
G01*
X142037000Y-104777250D01*
G75*
G02*
X141818250Y-104996000I-218750J0D01*
G01*
X141380750Y-104996000D01*
G75*
G02*
X141162000Y-104777250I0J218750D01*
G01*
G37*
%TD*%
%TO.C,R1*%
G36*
G01*
X142557000Y-103169500D02*
X142557000Y-102824500D01*
G75*
G02*
X142704500Y-102677000I147500J0D01*
G01*
X142999500Y-102677000D01*
G75*
G02*
X143147000Y-102824500I0J-147500D01*
G01*
X143147000Y-103169500D01*
G75*
G02*
X142999500Y-103317000I-147500J0D01*
G01*
X142704500Y-103317000D01*
G75*
G02*
X142557000Y-103169500I0J147500D01*
G01*
G37*
G36*
G01*
X141587000Y-103169500D02*
X141587000Y-102824500D01*
G75*
G02*
X141734500Y-102677000I147500J0D01*
G01*
X142029500Y-102677000D01*
G75*
G02*
X142177000Y-102824500I0J-147500D01*
G01*
X142177000Y-103169500D01*
G75*
G02*
X142029500Y-103317000I-147500J0D01*
G01*
X141734500Y-103317000D01*
G75*
G02*
X141587000Y-103169500I0J147500D01*
G01*
G37*
%TD*%
D10*
%TO.C,U1*%
X143467000Y-100393500D03*
X143467000Y-99443500D03*
X143467000Y-101343500D03*
X141267000Y-101343500D03*
X141267000Y-100393500D03*
X141267000Y-99443500D03*
%TD*%
%TO.C,C1*%
G36*
G01*
X142017000Y-97533750D02*
X142017000Y-98046250D01*
G75*
G02*
X141798250Y-98265000I-218750J0D01*
G01*
X141360750Y-98265000D01*
G75*
G02*
X141142000Y-98046250I0J218750D01*
G01*
X141142000Y-97533750D01*
G75*
G02*
X141360750Y-97315000I218750J0D01*
G01*
X141798250Y-97315000D01*
G75*
G02*
X142017000Y-97533750I0J-218750D01*
G01*
G37*
G36*
G01*
X143592000Y-97533750D02*
X143592000Y-98046250D01*
G75*
G02*
X143373250Y-98265000I-218750J0D01*
G01*
X142935750Y-98265000D01*
G75*
G02*
X142717000Y-98046250I0J218750D01*
G01*
X142717000Y-97533750D01*
G75*
G02*
X142935750Y-97315000I218750J0D01*
G01*
X143373250Y-97315000D01*
G75*
G02*
X143592000Y-97533750I0J-218750D01*
G01*
G37*
%TD*%
M02*
